<svg width="48" height="47" viewBox="0 0 48 47" fill="none" xmlns="http://www.w3.org/2000/svg">
<g filter="url(#filter0_d_2255_109)">
<path d="M45.901 45.218H31.8303C29.7753 45.218 27.8079 44.3852 26.3774 42.9097L10.2692 26.2949L21.6922 17.0641L46.5669 43.6843C47.1111 44.2668 46.6981 45.218 45.901 45.218Z" fill="url(#paint0_linear_2255_109)"/>
<path d="M14.204 0.333344H3.15339C1.47557 0.333344 0.115417 1.69349 0.115417 3.37132V42.3333L15.1154 28.5106V1.24474C15.1154 0.741388 14.7074 0.333344 14.204 0.333344Z" fill="url(#paint1_linear_2255_109)"/>
<g filter="url(#filter1_d_2255_109)">
<path d="M43.9057 2.00457L1.55584 44.3544C0.981699 44.9286 0 44.5219 0 43.71V29.0947C0 27.0804 0.800177 25.1486 2.2245 23.7242L23.2755 2.67324C24.6998 1.24891 26.6316 0.44873 28.6459 0.44873H43.2612C44.0732 0.44873 44.4798 1.43043 43.9057 2.00457Z" fill="url(#paint2_linear_2255_109)"/>
</g>
</g>
<defs>
<filter id="filter0_d_2255_109" x="-0.607595" y="0.333344" width="49.2152" height="46.7921" filterUnits="userSpaceOnUse" color-interpolation-filters="sRGB">
<feFlood flood-opacity="0" result="BackgroundImageFix"/>
<feColorMatrix in="SourceAlpha" type="matrix" values="0 0 0 0 0 0 0 0 0 0 0 0 0 0 0 0 0 0 127 0" result="hardAlpha"/>
<feOffset dy="0.607595"/>
<feGaussianBlur stdDeviation="0.303797"/>
<feComposite in2="hardAlpha" operator="out"/>
<feColorMatrix type="matrix" values="0 0 0 0 0 0 0 0 0 0 0 0 0 0 0 0 0 0 0.25 0"/>
<feBlend mode="normal" in2="BackgroundImageFix" result="effect1_dropShadow_2255_109"/>
<feBlend mode="normal" in="SourceGraphic" in2="effect1_dropShadow_2255_109" result="shape"/>
</filter>
<filter id="filter1_d_2255_109" x="-0.303797" y="0.44873" width="45.3896" height="45.3897" filterUnits="userSpaceOnUse" color-interpolation-filters="sRGB">
<feFlood flood-opacity="0" result="BackgroundImageFix"/>
<feColorMatrix in="SourceAlpha" type="matrix" values="0 0 0 0 0 0 0 0 0 0 0 0 0 0 0 0 0 0 127 0" result="hardAlpha"/>
<feOffset dx="0.303797" dy="0.607595"/>
<feGaussianBlur stdDeviation="0.303797"/>
<feComposite in2="hardAlpha" operator="out"/>
<feColorMatrix type="matrix" values="0 0 0 0 0 0 0 0 0 0 0 0 0 0 0 0 0 0 0.25 0"/>
<feBlend mode="normal" in2="BackgroundImageFix" result="effect1_dropShadow_2255_109"/>
<feBlend mode="normal" in="SourceGraphic" in2="effect1_dropShadow_2255_109" result="shape"/>
</filter>
<linearGradient id="paint0_linear_2255_109" x1="17.423" y1="21.7949" x2="44.544" y2="45.59" gradientUnits="userSpaceOnUse">
<stop stop-color="#655CE4"/>
<stop offset="1" stop-color="#13C2C2"/>
</linearGradient>
<linearGradient id="paint1_linear_2255_109" x1="9.00003" y1="27.3333" x2="10.2265" y2="0.394436" gradientUnits="userSpaceOnUse">
<stop stop-color="#655CE4"/>
<stop offset="1" stop-color="#13C2C2"/>
</linearGradient>
<linearGradient id="paint2_linear_2255_109" x1="1.56227e-06" y1="36.5641" x2="36.7666" y2="1.11995" gradientUnits="userSpaceOnUse">
<stop stop-color="#13C2C2"/>
<stop offset="1" stop-color="#655CE4"/>
</linearGradient>
</defs>
</svg>
